<?xml version="1.0" standalone="no"?>
<!DOCTYPE svg PUBLIC "-//W3C//DTD SVG 20010904//EN"
 "http://www.w3.org/TR/2001/REC-SVG-20010904/DTD/svg10.dtd">
<svg version="1.0" xmlns="http://www.w3.org/2000/svg"
 width="474.000000pt" height="577.000000pt" viewBox="0 0 474.000000 577.000000"
 preserveAspectRatio="xMidYMid meet">

<g transform="translate(0.000000,577.000000) scale(0.100000,-0.100000)"
fill="#000000" stroke="none">
<path d="M3214 5561 c-54 -40 -204 -196 -243 -254 -49 -72 -106 -199 -156
-349 -43 -129 -46 -133 -77 -141 -18 -5 -202 -12 -408 -17 -279 -6 -392 -12
-440 -23 -36 -9 -65 -15 -66 -14 -1 1 -41 72 -90 157 -109 192 -142 245 -214
340 -159 209 -258 282 -289 213 -28 -60 -62 -237 -73 -371 -15 -179 1 -447 32
-562 13 -47 19 -88 15 -110 -7 -36 -64 -149 -200 -398 l-78 -142 -31 19 c-17
10 -58 35 -91 55 -78 48 -129 63 -150 46 -28 -24 -17 -55 35 -99 67 -57 150
-157 150 -182 0 -16 -7 -19 -49 -19 -26 0 -99 11 -161 26 -141 31 -226 39
-263 25 -86 -34 68 -99 335 -142 43 -7 78 -17 78 -21 0 -5 -13 -35 -29 -67
-36 -71 -46 -75 -216 -101 -232 -34 -401 -102 -375 -151 17 -31 85 -24 295 30
105 27 192 47 194 45 5 -5 0 -15 -147 -344 -139 -309 -187 -432 -240 -615 -66
-222 -76 -293 -77 -515 l0 -195 42 -88 c49 -100 82 -151 147 -224 55 -61 152
-129 206 -143 57 -15 90 -48 139 -136 78 -141 114 -198 170 -273 71 -95 241
-265 351 -349 171 -132 270 -213 270 -221 0 -5 -27 -11 -61 -15 -68 -7 -107
-22 -123 -49 -9 -15 -5 -23 21 -47 18 -16 49 -33 70 -38 50 -12 686 -71 783
-73 119 -2 123 -1 188 39 56 34 86 59 178 144 l31 29 30 -53 c41 -71 107 -130
179 -159 57 -23 69 -24 392 -27 381 -4 442 3 442 45 0 27 -30 74 -86 133 l-34
36 133 138 c151 158 268 300 302 366 47 94 119 330 166 545 11 55 25 108 30
117 5 9 28 26 52 36 95 43 225 232 294 429 25 71 27 91 28 223 0 115 -5 167
-23 250 -64 290 -147 510 -359 943 -75 153 -133 280 -131 283 11 10 174 -95
249 -162 49 -42 74 -50 104 -30 34 23 31 40 -16 91 -53 58 -146 116 -283 177
-129 57 -182 93 -166 113 11 13 114 31 245 40 135 11 148 20 99 66 -25 24 -28
24 -227 24 l-202 0 -24 48 c-35 70 -23 91 66 110 37 8 93 18 123 22 69 8 120
24 120 36 0 16 -48 59 -67 60 -46 2 -107 -4 -216 -22 -66 -11 -120 -19 -122
-17 -1 2 -37 59 -80 128 -43 69 -112 175 -155 235 -42 61 -80 118 -83 129 -4
10 -2 78 4 151 23 266 -30 762 -88 828 -22 23 -34 22 -79 -12z m-1583 -1237
c75 -38 105 -124 69 -199 -28 -59 -67 -85 -133 -91 -104 -10 -174 64 -165 174
4 43 11 59 35 83 55 55 127 68 194 33z m1446 -4 c49 -29 68 -65 68 -129 0 -73
-30 -123 -85 -145 -99 -39 -189 0 -220 97 -20 63 13 152 68 182 40 21 130 19
169 -5z m-667 -190 c131 -12 175 -28 175 -60 0 -20 -11 -30 -62 -56 -34 -17
-88 -37 -120 -44 -155 -36 -389 9 -438 84 -31 48 -5 64 125 76 112 10 214 11
320 0z m230 -640 c446 -97 804 -387 998 -810 102 -222 142 -403 149 -672 3
-108 2 -213 -1 -232 l-7 -37 -49 54 c-26 29 -70 64 -97 79 -87 46 -178 48
-189 4 -5 -20 -18 -25 -127 -44 -157 -29 -202 -28 -274 3 -32 14 -69 25 -83
23 -21 -3 -25 -8 -23 -32 3 -44 80 -164 155 -240 l67 -70 -45 -48 c-63 -68
-58 -82 36 -89 60 -4 93 -14 165 -48 147 -69 219 -80 308 -46 23 10 22 5 -17
-73 -164 -323 -552 -650 -803 -676 l-61 -7 -22 66 c-46 138 -142 362 -177 413
-19 29 -33 55 -30 58 3 3 25 10 49 15 58 13 135 64 155 102 12 24 14 51 10
120 -5 87 -4 89 29 138 51 76 66 165 62 362 -3 167 -11 203 -43 190 -8 -3 -72
-90 -141 -195 l-127 -190 -61 6 c-34 4 -86 2 -116 -3 -44 -7 -58 -6 -70 5 -8
8 -69 94 -135 192 -66 97 -128 178 -138 180 -30 6 -41 -44 -40 -193 0 -213 38
-356 103 -393 l28 -16 -5 -92 -6 -91 37 -40 c37 -42 103 -76 169 -88 20 -4 37
-9 37 -12 0 -3 -13 -22 -29 -42 -16 -20 -38 -57 -50 -81 -27 -58 -113 -280
-135 -347 -10 -29 -22 -53 -27 -53 -4 0 -16 15 -26 33 -24 43 -21 152 6 281
31 147 27 194 -26 279 -31 49 -101 85 -140 71 -42 -15 -38 -31 15 -58 27 -14
63 -41 80 -61 28 -31 32 -43 32 -94 0 -32 -9 -102 -21 -157 -21 -100 -23 -227
-4 -269 8 -19 7 -19 -16 2 -13 12 -64 33 -113 47 -133 38 -202 74 -301 158
-83 70 -231 228 -264 283 -16 26 -32 6 208 275 209 234 291 390 291 557 0 88
-21 138 -77 180 -32 25 -47 28 -120 32 -68 2 -96 -1 -146 -19 -111 -40 -207
-100 -345 -217 -41 -35 -79 -63 -85 -63 -18 0 0 406 23 514 48 219 137 429
255 595 128 183 352 381 519 462 115 55 259 105 341 118 39 6 81 13 95 15 48
8 336 -2 390 -14z m-980 -1462 c56 -38 74 -71 78 -144 4 -59 1 -72 -32 -139
-44 -88 -123 -172 -198 -209 -226 -110 -393 62 -276 286 71 134 208 227 339
228 42 0 64 -6 89 -22z m419 -300 c84 -167 91 -193 62 -230 -23 -29 -72 -50
-90 -39 -18 12 -40 105 -51 221 -12 129 -13 190 -1 190 4 0 41 -64 80 -142z
m687 -131 c-19 -113 -30 -137 -60 -137 -13 0 -38 14 -56 30 -27 25 -32 36 -27
63 6 40 45 128 105 236 l47 84 3 -98 c1 -54 -4 -133 -12 -178z m924 73 c19
-36 -4 -80 -42 -80 -39 0 -64 60 -36 88 20 20 66 15 78 -8z m25 -167 c-8 -28
-22 -57 -31 -64 -15 -12 -16 -11 -9 11 15 47 45 113 50 108 3 -2 -2 -27 -10
-55z m-117 -55 c17 -17 15 -48 -5 -70 -20 -22 -41 -23 -65 -1 -20 18 -23 36
-8 64 12 22 59 26 78 7z m-1284 -59 c28 -22 34 -65 16 -113 -9 -24 -15 -26
-65 -26 -49 0 -57 3 -64 22 -12 33 4 79 39 111 36 32 40 33 74 6z m256 -6 c22
-20 33 -40 37 -68 6 -47 -4 -59 -59 -69 -30 -5 -41 -3 -58 14 -28 28 -28 102
0 130 27 27 44 25 80 -7z m-150 -143 c12 -8 9 -10 -13 -10 -16 0 -26 4 -22 10
8 12 16 12 35 0z"/>
<path d="M1563 4250 c-44 -18 -57 -86 -23 -120 44 -44 120 -10 120 55 0 49
-51 83 -97 65z"/>
<path d="M2906 4239 c-36 -28 -36 -80 0 -108 46 -36 94 -23 113 29 26 76 -49
129 -113 79z"/>
<path d="M2699 3287 c-60 -22 -105 -55 -132 -94 -38 -55 -47 -88 -48 -163 -1
-85 28 -156 83 -206 57 -51 95 -64 190 -64 66 0 90 4 118 21 50 30 89 68 121
118 26 40 29 54 29 120 -1 114 -38 180 -142 249 -47 31 -161 41 -219 19z m78
-119 c34 -32 30 -73 -11 -114 -59 -59 -136 -40 -136 34 0 25 8 42 34 68 40 40
79 44 113 12z m173 -88 c14 -14 20 -33 20 -63 0 -50 -18 -80 -60 -97 -57 -23
-100 28 -86 103 13 70 82 101 126 57z"/>
<path d="M2706 3147 c-33 -50 17 -93 57 -49 22 24 21 35 -1 55 -25 23 -39 21
-56 -6z"/>
<path d="M2865 3056 c-33 -49 21 -89 60 -46 15 17 16 24 7 45 -15 32 -47 32
-67 1z"/>
<path d="M2188 3230 c-26 -27 -30 -36 -25 -67 9 -55 44 -84 101 -86 41 -2 51
2 72 26 33 39 33 99 -1 132 -37 38 -106 35 -147 -5z m56 -53 c-3 -9 -12 -17
-20 -17 -17 0 -19 37 -1 43 18 7 29 -7 21 -26z m73 7 c8 -21 -13 -42 -28 -27
-13 13 -5 43 11 43 6 0 13 -7 17 -16z"/>
<path d="M1812 3075 c-64 -54 -79 -123 -42 -195 23 -45 81 -80 132 -80 81 0
148 74 148 163 0 42 -5 53 -39 89 -36 39 -42 42 -103 46 -58 4 -67 2 -96 -23z
m166 -85 c5 -29 -11 -44 -36 -35 l-21 6 20 20 c20 20 20 21 2 42 -18 21 -18
21 7 6 14 -9 27 -26 28 -39z m-156 -25 c-3 -20 0 -25 16 -25 14 0 22 8 25 23
3 20 4 20 11 -6 10 -33 -12 -64 -38 -54 -18 7 -31 50 -22 72 9 23 14 18 8 -10z"/>
<path d="M2283 2609 c-28 -11 -71 -38 -95 -60 l-43 -40 105 8 c135 10 209 7
262 -12 60 -20 71 -4 28 40 -44 45 -124 85 -169 84 -20 0 -59 -9 -88 -20z"/>
<path d="M1807 2595 c-40 -21 -113 -82 -132 -112 -28 -43 -5 -46 80 -12 53 21
108 34 174 41 168 17 173 22 81 68 -67 34 -154 41 -203 15z"/>
<path d="M2721 2575 c-44 -21 -71 -39 -65 -45 5 -5 66 -13 136 -19 95 -7 142
-16 190 -35 99 -40 107 -35 58 32 -47 66 -98 94 -178 99 -61 4 -73 1 -141 -32z"/>
<path d="M2120 2379 c-51 -23 -110 -66 -110 -79 0 -6 49 -7 123 -4 76 4 137 2
162 -4 53 -15 59 -15 63 -3 9 26 -122 111 -170 111 -13 0 -43 -10 -68 -21z"/>
<path d="M1720 2359 c-45 -27 -110 -89 -110 -106 0 -18 13 -17 94 13 45 16
101 28 154 31 45 3 85 9 87 13 7 12 -30 41 -72 56 -56 20 -113 17 -153 -7z"/>
<path d="M2473 2351 c-35 -16 -63 -34 -63 -39 0 -5 54 -14 120 -20 79 -7 136
-18 167 -32 60 -26 76 -13 38 32 -76 91 -156 109 -262 59z"/>
<path d="M2919 2338 c-34 -18 -62 -37 -63 -43 -1 -12 74 -23 165 -24 37 -1 83
-8 102 -16 77 -32 90 -8 26 50 -81 73 -136 81 -230 33z"/>
<path d="M1520 1993 c-14 -9 -26 -17 -28 -19 -8 -6 20 -44 32 -44 17 0 66 49
66 66 0 19 -40 17 -70 -3z"/>
<path d="M1410 1942 c0 -43 75 -103 99 -79 18 18 13 33 -24 66 -40 35 -75 41
-75 13z"/>
<path d="M1646 1879 c-33 -26 -32 -62 1 -67 16 -2 26 5 38 28 16 31 14 60 -3
60 -5 0 -21 -10 -36 -21z"/>
<path d="M1319 1823 c-50 -68 -79 -110 -79 -117 0 -3 9 -6 20 -6 23 0 116 82
125 111 6 19 -10 59 -23 59 -4 0 -24 -21 -43 -47z"/>
<path d="M1550 1801 c0 -28 40 -70 69 -73 14 -2 28 4 35 15 9 15 6 23 -22 48
-38 34 -82 39 -82 10z"/>
<path d="M1459 1673 c-114 -121 -101 -156 22 -57 73 59 84 87 39 92 -18 2 -35
-8 -61 -35z"/>
<path d="M1240 1607 c0 -18 48 -63 57 -53 11 11 -20 60 -40 64 -9 2 -17 -3
-17 -11z"/>
<path d="M3614 1649 c-8 -14 21 -43 35 -35 19 12 13 46 -8 46 -11 0 -23 -5
-27 -11z"/>
<path d="M3537 1443 c-15 -14 -7 -43 12 -43 23 0 34 23 18 39 -13 13 -21 14
-30 4z"/>
<path d="M2266 1364 c-20 -53 10 -129 33 -85 14 25 14 57 1 82 -13 23 -26 24
-34 3z"/>
<path d="M2504 1356 c-9 -37 -1 -81 16 -81 22 0 36 49 22 80 -15 31 -30 32
-38 1z"/>
</g>
</svg>
